# xmcd CD database file
#
# Track frame offsets:
#	150
#	13732
#	24152
#	38067
#	49935
#	62052
#	71410
#	82955
#	92175
#	104237
#	117432
#	127200
#	139920
#	149910
#	159872
#	173555
#
# Disc length: 2441 seconds
#
# Revision: 0
# Processed by: cddbd v1.4PL0 Copyright (c) Steve Scherf et al.
# Submitted via: Feurio! 1.65 - http://www.feurio.com
#
DISCID=e5098710
DTITLE=Loretta Lynn - The Very Best of Loretta Lynn
DYEAR=1900
DGENRE=Country
TTITLE0=Coal Miner's daughter
TTITLE1=You're lookin' at Country
TTITLE2=She's got you
TTITLE3=One's on the Way
TTITLE4=Blue Kentucky Girl
TTITLE5=Happy Birthday
TTITLE6=Before I'm over you
TTITLE7=Wine, Women and Song
TTITLE8=Out of my Head (& back in my Bed)
TTITLE9=Woman of the World (Leave my World alone)
TTITLE10=Trouble in Paradise
TTITLE11=Hey Loretta !
TTITLE12=You ain't Woman enough
TTITLE13=Fist City
TTITLE14=Somebodey, somewhere (Don't know what he's missin' tonight)
TTITLE15=Don't come home a drinkin' (with lovin' on your mind)
EXTD=
EXTT0=
EXTT1=
EXTT2=
EXTT3=
EXTT4=
EXTT5=
EXTT6=
EXTT7=
EXTT8=
EXTT9=
EXTT10=
EXTT11=
EXTT12=
EXTT13=
EXTT14=
EXTT15=
PLAYORDER=
